# xmcd CD database file
#
# Track frame offsets:
#	150
#	17568
#	32904
#	44110
#	64654
#	80546
#	101161
#	120818
#	140999
#	154969
#	174457
#	190872
#	209621
#	225716
#	238844
#	254580
#	274257
#	288537
#	304442
#	325186
#
# Disc length: 4678 seconds
#
# Revision: 0
# Processed by: cddbd v1.5.2PL0 Copyright (c) Steve Scherf et al.
# Submitted via: CDex 1.50
#
DISCID=36124414
DTITLE=Mary Coughlan - The Whole Affair (The Very Best of) 1
DYEAR=2
DGENRE=Jazz
TTITLE0=The Double Cross
TTITLE1=The Beach
TTITLE2=Seduced
TTITLE3=Ancient Rain
TTITLE4=The Ice Cream Man
TTITLE5=A Leaf From a Tree
TTITLE6=Man of the World
TTITLE7=Invisible to You
TTITLE8=Just a Friend of Mine
TTITLE9=Magdalen Laundry
TTITLE10=Woman undone
TTITLE11=The Little Death
TTITLE12=Run Away Teddy
TTITLE13=It Never Entered My Head
TTITLE14=You'll Be There
TTITLE15=The Thrill is Gone
TTITLE16=The House of Ill Repute
TTITLE17=Sleep On It
TTITLE18=The Whore of Babylon
TTITLE19=Mary Mary
EXTD=YEAR: 2
EXTT0=
EXTT1=
EXTT2=
EXTT3=
EXTT4=
EXTT5=
EXTT6=
EXTT7=
EXTT8=
EXTT9=
EXTT10=
EXTT11=
EXTT12=
EXTT13=
EXTT14=
EXTT15=
EXTT16=
EXTT17=
EXTT18=
EXTT19=
PLAYORDER=
